<svg xmlns="http://www.w3.org/2000/svg" width="24" height="24" viewBox="0 0 24 24">
  <defs>
    <style>
      .cls-1 {
        fill: #3d72de;
        fill-rule: evenodd;
      }
    </style>
  </defs>
  <path id="矩形_5_拷贝" data-name="矩形 5 拷贝" class="cls-1" d="M4263,3094h-7v7a2.006,2.006,0,0,1-2,2h-2a2.006,2.006,0,0,1-2-2v-7h-7a2.006,2.006,0,0,1-2-2v-2a2.006,2.006,0,0,1,2-2h7v-7a2.006,2.006,0,0,1,2-2h2a2.006,2.006,0,0,1,2,2v7h7a2.006,2.006,0,0,1,2,2v2A2.006,2.006,0,0,1,4263,3094Z" transform="translate(-4241 -3079)"/>
</svg>
