<svg xmlns="http://www.w3.org/2000/svg" width="24" height="24" viewBox="0 0 24 24">
  <defs>
    <style>
      .cls-1 {
      fill: #dbdbdd;
      fill-rule: evenodd;
      }
    </style>
  </defs>
  <path id="矩形_2253_拷贝" data-name="矩形 2253 拷贝" class="cls-1" d="M1299.58,750.775q-3.36,3.674-6.72,7.343a1.129,1.129,0,0,0,0,1.733c1.84,2.016,3.69,4.032,5.53,6.049,0.4,0.444.81,0.89,1.21,1.337a1.32,1.32,0,0,1,0,1.843c-0.16.179-.32,0.359-0.48,0.532a1.083,1.083,0,0,1-1.65-.025q-4.2-4.593-8.41-9.19a2.017,2.017,0,0,1-.53-1.326,2.118,2.118,0,0,1,.53-1.492q4.215-4.6,8.42-9.19a1.058,1.058,0,0,1,1.62-.015c0.16,0.166.32,0.336,0.48,0.508A1.326,1.326,0,0,1,1299.58,750.775Zm-21.06,18.775a1.072,1.072,0,0,1-1.7-.013c-0.15-.161-0.3-0.321-0.44-0.483a1.316,1.316,0,0,1,0-1.84q3.375-3.7,6.76-7.392a1.124,1.124,0,0,0,0-1.683l-6.72-7.342a1.334,1.334,0,0,1-.01-1.929c0.14-.157.28-0.313,0.42-0.466a1.1,1.1,0,0,1,1.71.01c1.9,2.069,3.79,4.139,5.69,6.209q1.32,1.449,2.64,2.9a2,2,0,0,1,.57,1.258,2.238,2.238,0,0,1-.54,1.614Q1282.715,764.975,1278.52,769.55Z" transform="translate(-1276 -747)"/>
</svg>
