<svg xmlns="http://www.w3.org/2000/svg" width="128" height="128" viewBox="0 0 128 128">
  <defs>
    <style>
      .cls-1 {
        fill: #00e8b0;
        fill-rule: evenodd;
      }
    </style>
  </defs>
  <path class="cls-1" d="M1401,736.989A64.011,64.011,0,1,1,1336.99,801,64.012,64.012,0,0,1,1401,736.989Zm30.49,50.3-36.08,34.3a6.6,6.6,0,0,1-4.54,1.4,6.489,6.489,0,0,1-4.54-1.4l-15.83-15.072a4.626,4.626,0,0,1,0-6.806,5.2,5.2,0,0,1,7.14,0l13.23,12.587,33.47-31.871a5.217,5.217,0,0,1,7.15,0A4.689,4.689,0,0,1,1431.49,787.285Z" transform="translate(-1337 -737)"/>
</svg>
