<svg xmlns="http://www.w3.org/2000/svg" width="80" height="80" viewBox="0 0 80 80">
  <defs>
    <style>
      .cls-1 {
        fill: #7b8992;
        fill-rule: evenodd;
      }
    </style>
  </defs>
  <path class="cls-1" d="M444.551,2424.54c0.4,2.23,2.24,4.47,4.449,4.47s4.122-2.24,4.522-4.47c0-11.15,6.738-15.73,15.478-15.73s15.556,4.58,15.556,15.73c0.4,2.23,2.2,4.47,4.408,4.47s4.083-2.24,4.48-4.47a0.458,0.458,0,0,0,.036-0.24c0.007-.1,0-0.43,0-0.52a0.546,0.546,0,0,0,0-.3c-0.622-8.82-5.289-16.57-12.92-20.43a17.9,17.9,0,0,0,6.878-14.08c0-9.91-8.449-17.97-18.438-17.97a17.93,17.93,0,0,0-10.873,32.08,24.844,24.844,0,0,0-13.571,20.27,8.426,8.426,0,0,0,0,1.19c0,0.1,0,0-.055-0.28m24.5-26.49a8.92,8.92,0,1,1,8.889-8.92A9.006,9.006,0,0,1,469,2397.77Zm-16.889,3.98a8.119,8.119,0,0,1-2.209-3.25c-0.624-1.04-.582-2.96-0.9-2.96h0.364c-3.74,0-6.78-1.95-6.78-5.32,0-2.8,1.729-4.49,4.185-5.51a16.794,16.794,0,0,1,4.084-9.08c-0.486-.04-0.975.11-1.475,0.11a15.879,15.879,0,0,0-15.849,15.81c0,4.03,1.544,6.25,4.06,9.03-5.187,3.65-8.589,8.35-8.589,15.04h0.022s-0.022,1.63-.022,1.7c0,2.48,2.029,5.24,4.529,5.24s4.529-3.12,4.529-5.61c0-.07-0.018-1.33-0.022-1.33h0.022c0-4.46,3.175-7.7,7.569-9.12C447.8,2403.87,449.033,2403.32,452.111,2401.75Zm33.778,0a8.119,8.119,0,0,0,2.209-3.25c0.624-1.04.58-2.96,0.9-2.96h-0.364c3.74,0,6.78-1.95,6.78-5.32,0-2.8-1.729-4.49-4.185-5.51a16.794,16.794,0,0,0-4.084-9.08c0.486-.04.975,0.11,1.475,0.11a15.879,15.879,0,0,1,15.849,15.81c0,4.03-1.544,6.25-4.06,9.03,5.187,3.65,8.589,8.35,8.589,15.04h-0.022s0.022,1.63.022,1.7c0,2.48-2.029,5.24-4.529,5.24s-4.529-3.12-4.529-5.61c0-.07.018-1.33,0.022-1.33h-0.022c0-4.46-3.175-7.7-7.569-9.12-2.175-2.63-3.409-3.18-6.484-4.75h0Z" transform="translate(-429 -2360)"/>
</svg>
