<svg xmlns="http://www.w3.org/2000/svg" width="32" height="32" viewBox="0 0 32 32">
  <defs>
    <style>
      .cls-1 {
        fill: #282828;
        fill-rule: evenodd;
      }
    </style>
  </defs>
  <path id="椭圆_1_拷贝" data-name="椭圆 1 拷贝" class="cls-1" d="M862,3491a1.8,1.8,0,0,1,2,1.5v13a2.083,2.083,0,0,1-4,0v-13A1.8,1.8,0,0,1,862,3491Zm8-8a1.8,1.8,0,0,1,2,1.5v21a2.083,2.083,0,0,1-4,0v-21A1.8,1.8,0,0,1,870,3483Zm8,3a1.8,1.8,0,0,1,2,1.5v18a2.083,2.083,0,0,1-4,0v-18A1.8,1.8,0,0,1,878,3486Zm8,11a1.8,1.8,0,0,1,2,1.5v7a2.083,2.083,0,0,1-4,0v-7A1.8,1.8,0,0,1,886,3497Zm-26.588,14h29.176a2.122,2.122,0,0,1,0,4H859.412A2.122,2.122,0,0,1,859.412,3511Z" transform="translate(-858 -3483)"/>
</svg>
