<svg xmlns="http://www.w3.org/2000/svg" width="31.969" height="30" viewBox="0 0 31.969 30">
  <defs>
    <style>
      .cls-1 {
        fill: #282828;
        fill-rule: evenodd;
      }
    </style>
  </defs>
  <path id="椭圆_1_拷贝_3" data-name="椭圆 1 拷贝 3" class="cls-1" d="M889.931,3663.35a1.477,1.477,0,0,0-1.2-.99l-9.239-1.32-4.133-8.23a1.506,1.506,0,0,0-2.671,0l-4.133,8.23-9.24,1.32a1.473,1.473,0,0,0-1.2.99,1.446,1.446,0,0,0,.377,1.5l6.686,6.4-1.578,9.04a1.449,1.449,0,0,0,.592,1.43,1.507,1.507,0,0,0,1.57.11l8.265-4.27,8.264,4.27a1.538,1.538,0,0,0,.692.17,1.476,1.476,0,0,0,.876-0.28,1.451,1.451,0,0,0,.592-1.43l-1.578-9.04,6.686-6.4A1.45,1.45,0,0,0,889.931,3663.35Z" transform="translate(-858.031 -3652)"/>
</svg>
