<svg xmlns="http://www.w3.org/2000/svg" width="32" height="32" viewBox="0 0 32 32">
  <defs>
    <style>
      .cls-1 {
        fill: #222;
        fill-rule: evenodd;
      }
    </style>
  </defs>
  <path id="椭圆_5" data-name="椭圆 5" class="cls-1" d="M4271.4,1672.8a1.6,1.6,0,0,1,3.2,0v7.34l4.16,4.15a1.6,1.6,0,1,1-2.27,2.26l-4.35-4.34a1.347,1.347,0,0,1-.71-1.18c0-.06-0.02-0.11-0.02-0.17,0-.02-0.01-0.04-0.01-0.06v-8Zm1.6,23.2a16,16,0,1,1,6.54-30.6,1.6,1.6,0,1,1-1.31,2.92,12.806,12.806,0,1,0,5.37,4.51,1.612,1.612,0,0,1,.47-2.22,1.592,1.592,0,0,1,2.18.42A16,16,0,0,1,4273,1696Z" transform="translate(-4257 -1664)"/>
</svg>
