<svg xmlns="http://www.w3.org/2000/svg" width="30" height="28" viewBox="0 0 30 28">
    <defs>
        <style>
            .cls-1 {
            fill: #8c97ac;
            fill-rule: evenodd;
            }
        </style>
    </defs>
    <path class="cls-1" d="M944.874,787.353l2.883-2.99-2.927-3.036-2.883,2.988Zm-1.816,1.882-2.927-3.036-12.889,13.365a6.666,6.666,0,0,0-1.361,2.628l-0.454,2.29,2.21-.47a6.258,6.258,0,0,0,2.533-1.414l12.888-13.363h0Zm0.241-9.579a2.1,2.1,0,0,1,3.063,0l3.009,3.119a2.309,2.309,0,0,1,.014,3.164l-0.014.014-17.628,18.278a8.34,8.34,0,0,1-3.659,2.041l-3.308.7a1.448,1.448,0,0,1-1.347-.419,1.576,1.576,0,0,1-.4-1.4l0.678-3.429a8.883,8.883,0,0,1,1.968-3.8L943.3,779.656h0Zm4.789,21.9a4.415,4.415,0,0,1-1.8,2.8,5.13,5.13,0,0,0,4.762-2.11,1.072,1.072,0,0,1,1.532-.2,1.147,1.147,0,0,1,.193,1.577c-2,2.646-4.914,3.536-8.546,2.676a5.968,5.968,0,0,1-1.322-.476,33.292,33.292,0,0,1-8.318,1.181,1.063,1.063,0,0,1-.77-0.327,1.142,1.142,0,0,1-.321-0.8,1.111,1.111,0,0,1,1.092-1.125,29.548,29.548,0,0,0,6.39-.774,4.395,4.395,0,0,1,4.074-6.279,3.354,3.354,0,0,1,3.033,3.857h0Zm-5.3.1a1.76,1.76,0,0,0,.478,1.745c3.142-.981,3.433-3.18,1.476-3.474a1.987,1.987,0,0,0-1.954,1.729h0Z" transform="translate(-923 -779)"/>
</svg>